# xmcd
#
# Track frame offsets: 
#        150
#        15359
#        29575
#        52194
#        73765
#        90407
#        107063
#        128264
#        146007
#        162920
#        179626
#        196445
#        214905
#        225808
#        242795
#        252917
#        271026
#        289515
#        306066
#        323173
#        338608
#
# Disc length: 4697 seconds
#
# Revision: 0
# Processed by: cddbd v1.5.2PL0 Copyright (c) Steve Scherf et al.
# Submitted via: ExactAudioCopyFreeDBPlugin 1.0
#
DISCID=23125715
DTITLE=Average White Band - Rare Tracks Vol.1 Clover Sessions and More
DYEAR=2015
DGENRE=Funk
TTITLE0=Person To Person (Alternate Version)
TTITLE1=Keepin' It To Myself (Alternate Version)
TTITLE2=There's Always Someone Waiting (Alternate Version)
TTITLE3=McEwan's Export (Alternate Version)
TTITLE4=Got The Love (Alternate Version)
TTITLE5=Work To Do (Alternate Version)
TTITLE6=Just Want To Love You Tonight (Alternate Version)
TTITLE7=Pick Up The Pieces (Alternate Version)
TTITLE8=I Just Can't Give You Up (Alternate Version)
TTITLE9=How Sweet Can You Get? (First Version)
TTITLE10=Back In '67 (First Version)
TTITLE11=Reach Out (First Version)
TTITLE12=The Jugglers (First Version)
TTITLE13=It Didn't Take Me A Minute
TTITLE14=In The Beginning
TTITLE15=Look Out Now
TTITLE16=White Water Dreams
TTITLE17=Cut The Cake (7" Edit)
TTITLE18=If I Ever Lose This Heaven (Edit)
TTITLE19=Work To Do (7" Edit)
TTITLE20=Pick Up The Pieces (7" Edit)
EXTD=
EXTT0=
EXTT1=
EXTT2=
EXTT3=
EXTT4=
EXTT5=
EXTT6=
EXTT7=
EXTT8=
EXTT9=
EXTT10=
EXTT11=
EXTT12=
EXTT13=
EXTT14=
EXTT15=
EXTT16=
EXTT17=
EXTT18=
EXTT19=
EXTT20=
PLAYORDER=
